<svg width="25" height="24" viewBox="0 0 25 24" fill="none" xmlns="http://www.w3.org/2000/svg">
<path d="M14.0373 23.04C14.8912 23.04 15.5062 22.4121 15.5062 21.5711V1.54446C15.5062 0.703393 14.8912 0 14.0121 0C13.3971 0 12.9825 0.276429 12.3171 0.904286L6.78 6.13982C6.6883 6.21573 6.57222 6.25588 6.45321 6.25286H2.72464C0.954107 6.25286 0 7.21982 0 9.10286V13.9746C0 15.8582 0.954107 16.8246 2.72464 16.8246H6.45321C6.57911 16.8246 6.69214 16.8621 6.78 16.9377L12.3171 22.2241C12.9198 22.7887 13.4223 23.04 14.0373 23.04ZM21.1682 17.0882C21.5952 17.3898 22.2107 17.2896 22.5745 16.8C23.5543 15.4811 24.1441 13.5482 24.1441 11.5768C24.1441 9.60536 23.5414 7.68429 22.5745 6.34071C22.2102 5.85107 21.608 5.75036 21.1682 6.05143C20.6164 6.41571 20.5532 7.05643 20.955 7.60875C21.6836 8.58803 22.1229 10.0821 22.1229 11.5762C22.1229 13.0709 21.6579 14.565 20.9427 15.5566C20.5655 16.0966 20.6287 16.7111 21.1682 17.0882Z" fill="#003DFF"/>
</svg>
