<svg width="25" height="23" viewBox="0 0 25 23" fill="none" xmlns="http://www.w3.org/2000/svg">
<path d="M24.2754 6.01751L24.215 13.63C24.216 14.3806 24.0681 15.124 23.78 15.8171C23.4946 16.5083 23.0754 17.1362 22.5467 17.665C22.0179 18.1938 21.3899 18.6129 20.6988 18.8983C20.0057 19.1865 19.2623 19.3343 18.5117 19.3333H15.6963L13.2796 21.75C13.1293 21.9062 12.9483 22.0297 12.7479 22.1125C12.5397 22.2088 12.3128 22.2583 12.0834 22.2575C11.8551 22.2585 11.6291 22.2133 11.4188 22.1246C11.2083 22.0309 11.0191 21.8952 10.8629 21.7258L8.50669 19.3817H5.69127C4.94287 19.3817 4.20181 19.2341 3.51053 18.9473C2.81925 18.6605 2.19131 18.2402 1.66267 17.7105C1.13403 17.1807 0.715071 16.5519 0.42977 15.86C0.144469 15.1681 -0.00156663 14.4267 2.23365e-05 13.6783V5.70335C-0.00207955 4.95389 0.144181 4.21142 0.430373 3.51876C0.716565 2.82609 1.13703 2.19692 1.66752 1.66751C2.73977 0.607878 4.18381 0.00944768 5.69127 1.28558e-05H18.5721C19.3215 -0.00157996 20.0639 0.144854 20.7566 0.430909C21.4492 0.716964 22.0786 1.13701 22.6085 1.66693C23.1384 2.19685 23.5585 2.82621 23.8445 3.51889C24.1306 4.21157 24.277 4.95393 24.2754 5.70335V6.01751Z" fill="#C9D0DE"/>
</svg>
