<svg width="24" height="19" viewBox="0 0 24 19" fill="none" xmlns="http://www.w3.org/2000/svg">
<path d="M2.33333 18.6667C1.69167 18.6667 1.14256 18.4384 0.686 17.9818C0.229444 17.5253 0.000777778 16.9758 0 16.3333V2.33333C0 1.69167 0.228667 1.14256 0.686 0.686C1.14333 0.229444 1.69244 0.000777778 2.33333 0H8.37083C8.68194 0 8.97867 0.0583334 9.261 0.175C9.54333 0.291667 9.79105 0.456944 10.0042 0.670833L11.6667 2.33333H21C21.6417 2.33333 22.1912 2.562 22.6485 3.01933C23.1058 3.47667 23.3341 4.02578 23.3333 4.66667V16.3333C23.3333 16.975 23.1051 17.5245 22.6485 17.9818C22.1919 18.4392 21.6424 18.6674 21 18.6667H2.33333Z" fill="#003DFF"/>
</svg>
